<?xml version='1.0' encoding='utf-8'?>
<svg xmlns="http://www.w3.org/2000/svg" width="840.23" height="841.78" clip-path="url(#a)" fill-rule="evenodd" stroke-linejoin="round" stroke-width="28.222" preserveAspectRatio="xMidYMid" version="1.2" viewBox="0 0 23713.234 23756.817">
 <defs class="ClipPathGroup">
  <clipPath id="a">
   <rect width="25400" height="25400"/>
  </clipPath>
  </defs>
 <g class="com.sun.star.drawing.PolyPolygonShape" transform="translate(-745.5 -905.5)">
       <path d="m1-1v1h-1l1-1z"/>
     </g><g class="com.sun.star.drawing.PolyPolygonShape" transform="translate(-745.5 -905.5)">
       <path d="m0-1h1v1h-1v-1z"/>
     </g><g class="com.sun.star.drawing.PolyPolygonShape" transform="translate(-745.5 -905.5)">
       <path d="m0 0v-1l1 1h-1zm1 0-1-1v1h1z"/>
     </g><g class="com.sun.star.drawing.PolyPolygonShape" transform="translate(-745.5 -905.5)">
       <path d="m2 0h-2 1v-1l1 1z"/>
     </g><g class="com.sun.star.drawing.PolyPolygonShape" transform="translate(-745.5 -905.5)">
       <path d="m0 0v-1 1z"/>
     </g><g class="com.sun.star.drawing.PolyPolygonShape" transform="translate(-745.5 -905.5)">
       <path d="m0 0v-1 1l1-1-1 1z"/>
     </g><g class="com.sun.star.drawing.ClosedBezierShape" transform="translate(-745.5 -905.5)">
       <path d="m1 0h-1v-1h1v1z"/>
     </g><g class="com.sun.star.drawing.PolyPolygonShape" transform="translate(-745.5 -905.5)">
       <path d="m0 0z"/>
     </g><g class="com.sun.star.drawing.PolyPolygonShape" transform="translate(-745.5 -905.5)">
       <path d="m0 0h1-1z"/>
     </g><g class="com.sun.star.drawing.PolyPolygonShape" transform="translate(-745.5 -905.5)">
       <path d="m2-1v2h-2l2-2z"/>
     </g><g class="com.sun.star.drawing.PolyPolygonShape" transform="translate(-745.5 -905.5)">
       <path d="m0-1h2v2h-2v-2z"/>
     </g><g class="com.sun.star.drawing.PolyPolygonShape" transform="translate(-745.5 -905.5)">
       <path d="m0 1v-2l2 2h-2zm2 0-2-2v2h2z"/>
     </g><g class="com.sun.star.drawing.PolyPolygonShape" transform="translate(-745.5 -905.5)">
       <path d="m2 1h-2 1v-2l1 2z"/>
     </g><g class="com.sun.star.drawing.PolyPolygonShape" transform="translate(-745.5 -905.5)">
       <path d="m0 1v-2 2l2-2-2 2z"/>
     </g><g class="com.sun.star.drawing.ClosedBezierShape" transform="translate(-745.5 -905.5)">
       <path d="m2 1h-2v-2h2v2z"/>
     </g><g class="com.sun.star.drawing.PolyPolygonShape" transform="translate(-745.5 -905.5)">
       <path d="m0 0z"/>
     </g><g class="com.sun.star.drawing.PolyPolygonShape" transform="translate(-745.5 -905.5)">
       <path d="m2-1v2h-2l2-2z"/>
     </g><g class="com.sun.star.drawing.PolyPolygonShape" transform="translate(-745.5 -905.5)">
       <path d="m0-1h2v2h-2v-2z"/>
     </g><g class="com.sun.star.drawing.PolyPolygonShape" transform="translate(-745.5 -905.5)">
       <path d="m0 1v-2l2 2h-2zm2 0-2-2v2h2z"/>
     </g><g class="com.sun.star.drawing.PolyPolygonShape" transform="translate(-745.5 -905.5)">
       <path d="m2 1h-2 1v-2l1 2z"/>
     </g><g class="com.sun.star.drawing.PolyPolygonShape" transform="translate(-745.5 -905.5)">
       <path d="m0 1v-2 2l2-2-2 2z"/>
     </g><g class="com.sun.star.drawing.ClosedBezierShape" transform="translate(-745.5 -905.5)">
       <path d="m2 1h-2v-2h2v2z"/>
     </g><g class="com.sun.star.drawing.PolyPolygonShape" transform="translate(-745.5 -905.5)">
       <path d="m0 0z"/>
     </g><g class="com.sun.star.drawing.PolyPolygonShape" transform="translate(-745.5 -905.5)">
       <path d="m2-1v2h-2l2-2z"/>
     </g><g class="com.sun.star.drawing.PolyPolygonShape" transform="translate(-745.5 -905.5)">
       <path d="m0-1h2v2h-2v-2z"/>
     </g><g class="com.sun.star.drawing.PolyPolygonShape" transform="translate(-745.5 -905.5)">
       <path d="m0 1v-2l2 2h-2zm2 0-2-2v2h2z"/>
     </g><g class="com.sun.star.drawing.PolyPolygonShape" transform="translate(-745.5 -905.5)">
       <path d="m2 1h-2 1v-2l1 2z"/>
     </g><g class="com.sun.star.drawing.PolyPolygonShape" transform="translate(-745.5 -905.5)">
       <path d="m0 1v-2 2l2-2-2 2z"/>
     </g><g class="com.sun.star.drawing.ClosedBezierShape" transform="translate(-745.5 -905.5)">
       <path d="m2 1h-2v-2h2v2z"/>
     </g><g class="com.sun.star.drawing.PolyPolygonShape" transform="translate(-745.5 -905.5)">
       <path d="m0 0z"/>
     </g><g class="com.sun.star.drawing.PolyPolygonShape" transform="translate(-745.5 -905.5)">
       <path d="m2-1v2h-2l2-2z"/>
     </g><g class="com.sun.star.drawing.PolyPolygonShape" transform="translate(-745.5 -905.5)">
       <path d="m0-1h2v2h-2v-2z"/>
     </g><g class="com.sun.star.drawing.PolyPolygonShape" transform="translate(-745.5 -905.5)">
       <path d="m0 1v-2l2 2h-2zm2 0-2-2v2h2z"/>
     </g><g class="com.sun.star.drawing.PolyPolygonShape" transform="translate(-745.5 -905.5)">
       <path d="m2 1h-2 1v-2l1 2z"/>
     </g><g class="com.sun.star.drawing.PolyPolygonShape" transform="translate(-745.5 -905.5)">
       <path d="m0 1v-2 2l2-2-2 2z"/>
     </g><g class="com.sun.star.drawing.ClosedBezierShape" transform="translate(-745.5 -905.5)">
       <path d="m2 1h-2v-2h2v2z"/>
     </g><g class="com.sun.star.drawing.PolyPolygonShape" transform="translate(-745.5 -905.5)">
       <path d="m0 0z"/>
     </g><g class="com.sun.star.drawing.ClosedBezierShape" transform="translate(-745.5 -905.5)" fill="#ab2524">
      <g fill="#ab2524">
       <path d="m2399 12790c0 1883 429 3484 1371 5115 941 1631 2113 2803 3744 3744 1631 942 3232 1371 5115 1371 1884 0 3485-429 5116-1371 1631-941 2803-2113 3744-3744 942-1631 1371-3232 1371-5115 0-1884-429-3485-1371-5116-941-1631-2113-2803-3744-3744-1631-942-3232-1371-5116-1371-1883 0-3484 429-5115 1371-1631 941-2803 2113-3744 3744-942 1631-1371 3232-1371 5116z" fill="#ab2524"/>
      </g>
     </g><g class="com.sun.star.drawing.ClosedBezierShape" transform="matrix(.98778 0 0 .98778 -609.73 -724.2)">
       <path d="m2399 12790c0 1883 429 3484 1371 5115 941 1631 2113 2803 3744 3744 1631 942 3232 1371 5115 1371 1884 0 3485-429 5116-1371 1631-941 2803-2113 3744-3744 942-1631 1371-3232 1371-5115 0-1884-429-3485-1371-5116-941-1631-2113-2803-3744-3744-1631-942-3232-1371-5116-1371-1883 0-3484 429-5115 1371-1631 941-2803 2113-3744 3744-942 1631-1371 3232-1371 5116z" fill="#fff" stroke="#ab2524" stroke-width="3527.8"/>
     </g>
<path d="m13324 7428.2c-19.681 0.2473-39.46 0.7459-59.176 1.8106-315.44 17.051-494.54 349.83-494.54 469.18 0 119.36-144.88 383.25-221.61 477.03s-485.83 162.22-588.14 187.79c-102.31 25.576-946.24 826.68-1014.4 894.89-68.204 68.204-273.35 162.36-367.13 170.89-93.781 8.5256-968.17 538.03-1056.7 681.73-81.209 131.79-167.91 539.97-225.23 850.2-42.805 22.052-75.534 49.512-91.18 83.933-89.028 195.86-165.71 203.1-329.7 195.64-195.86-8.903-480.59 44.468-338.15-106.88s249.26-285.1 311.58-498.77c62.319-213.67-195.64-294.07-195.64-294.07-964.47-8.681-2086-8.511-2432.9-9.057-194.47 4.211-183.49 304.27-86.953 374.38 46.125 33.498 329.09 187.19 329.09 187.19l0.6028 257.84s-436.34 213.97-596.59 365.32-436.57 533.79-436.57 533.79l-542.85-8.453 222.21 1326 451.67-6.038c134.21 860.61 878.84 1519.3 1777.1 1519.3 962.23 0 1747.6-756.18 1795.8-1706.4l298.9 10.869 609.27 877.38h3632.1c311.6 0 302.93-195.98 187.19-285.01-115.73-89.027-436.57-320.64-436.57-320.64l1705.8-1614.7 162.43-22.946c-287.89 355.18-460.73 807.36-460.73 1300.1 0 84.596 15.096 249.99 15.096 249.99 111.15 85.629 184.89 103.41 295.88 148.54 0 0 10.994 61.079 51.93 175.11 40.935 114.03 115.94 278.97 115.94 278.97 316.56 568.97 908.44 945.61 1588.1 945.61 993.27 0 1798.2-804.96 1798.2-1798.2 0-63.345-3.274-126.14-9.661-187.79-19.306-186.35-67.105-363.91-138.88-528.96l225.23-152.77c-328.23-707.03-1044.2-1197.4-1874.9-1197.4-263.17 0-514.82 49.169-746.34 138.88-146.86-285.98-264.22-508.15-295.28-547.68-101.54-129.22-121.41-368.62-330.9-372.57-6.758-0.135-13.974 0.232-21.135 0.603-313.65 16.369-563.08 28.23-765.67 37.438-177.53-138.34-484.24-360.49-631.61-360.49-213.14 0-315.82 34.305-528.96 119.56-213.14 85.254-494.54 76.687-494.54 76.687s94.056-528.52 111.11-724.61c17.051-196.09-25.649-793.08 8.453-835.71 34.102-42.628 272.96 213.44 341.17 179.34 68.204-34.102 196.28-324.26 264.48-324.26 68.204 0 213.15 42.872 213.15 42.872s229.76-656.56 50.723-920.85c-167.85-247.77-455.34-338.24-750.57-334.53zm1459.5 3429.8c141.2 21.861 312.47 52.013 417.86 82.122 50.827 14.522 170.62 178.63 320.03 414.23h-1748.7l12.077-377.4s443.59 85.285 614.1 68.234c157.86-15.786 344.23-141.61 384.64-187.19zm2116.5 1275.9c468 0 872.24 271.09 1065.2 664.82 77.149 157.45 120.77 334.58 120.77 521.72 0 655.14-530.8 1185.9-1185.9 1185.9-578.95 0-1061.1-414.58-1165.4-963.12-13.731-72.182-21.134-146.63-21.134-222.82 0-365.9 165.9-692.99 426.31-910.59 230.64 412.34 395.7 720.31 461.94 844.16 15.192 28.407 57.365 106.28 57.365 106.28 81.022 122.79 143.24 178.48 240.93 179.34 121.03 0 210.74-81.859 210.74-202.89-7.689-29.91-19.711-92.495-80.31-195.64 0 0-11.804-24.189-12.681-25.965-18.727-37.961-222.24-450.06-462.54-929.91 109.14-33.116 224.83-51.326 344.79-51.326zm-3542.7 63.403 766.88 5.434-1150.9 1009 384.04-1014.4zm-2944.3 144.92 1087.5 82.122-496.96 680.52-590.55-762.65z" fill="none" stroke="#000" stroke-linejoin="miter" stroke-width="112.32"/><path d="m7338.3 12097c-584.22 0-1069.5 422.2-1167.8 978.22l972.78 7.246c27.003-26.263 59.58-46.681 95.406-60.384l699.24-762.65c-175.94-103.28-380.85-162.43-599.61-162.43zm881 391.89-609.27 728.23c5.1171 21.16 7.8499 43.085 7.8499 65.818 0 154.51-125.07 279.58-279.58 279.58-101.64 0-190.13-54.186-239.12-135.26l-939.57-12.68c65.491 593.18 568.05 1054.9 1178.7 1054.9 655.14 0 1185.9-531.4 1185.9-1186.5 0-305.41-115.34-583.79-304.94-794.05z" fill="none" stroke="#000" stroke-linejoin="miter" stroke-width="112.32"/></svg>