<?xml version='1.0' encoding='utf-8'?>
<svg xmlns="http://www.w3.org/2000/svg" width="844.23" height="845.78" clip-path="url(#a)" fill-rule="evenodd" stroke-linejoin="round" stroke-width="28.222" preserveAspectRatio="xMidYMid" version="1.2" viewBox="0 0 23826.045 23869.792">
 <defs class="ClipPathGroup">
  <clipPath id="a">
   <rect width="25400" height="25400"/>
  </clipPath>
  </defs>
 <path transform="matrix(30.367 0 0 28.909 8690.9 6918.8)" d="m419.84 177.28a315.85 331.78 0 1 1 -631.7 0 315.85 331.78 0 1 1 631.7 0z" color="#000000" fill="#fff" fill-rule="nonzero"/>
 <g class="com.sun.star.drawing.PolyPolygonShape" transform="translate(-745.5 -792.53)">
       <path d="m1-1v1h-1l1-1z"/>
     </g><g class="com.sun.star.drawing.PolyPolygonShape" transform="translate(-745.5 -792.53)">
       <path d="m0-1h1v1h-1v-1z"/>
     </g><g class="com.sun.star.drawing.PolyPolygonShape" transform="translate(-745.5 -792.53)">
       <path d="m0 0v-1l1 1h-1zm1 0-1-1v1h1z"/>
     </g><g class="com.sun.star.drawing.PolyPolygonShape" transform="translate(-745.5 -792.53)">
       <path d="m2 0h-2 1v-1l1 1z"/>
     </g><g class="com.sun.star.drawing.PolyPolygonShape" transform="translate(-745.5 -792.53)">
       <path d="m0 0v-1 1z"/>
     </g><g class="com.sun.star.drawing.PolyPolygonShape" transform="translate(-745.5 -792.53)">
       <path d="m0 0v-1 1l1-1-1 1z"/>
     </g><g class="com.sun.star.drawing.ClosedBezierShape" transform="translate(-745.5 -792.53)">
       <path d="m1 0h-1v-1h1v1z"/>
     </g><g class="com.sun.star.drawing.PolyPolygonShape" transform="translate(-745.5 -792.53)">
       <path d="m0 0z"/>
     </g><g class="com.sun.star.drawing.PolyPolygonShape" transform="translate(-745.5 -792.53)">
       <path d="m0 0h1-1z"/>
     </g><g class="com.sun.star.drawing.PolyPolygonShape" transform="translate(-745.5 -792.53)">
       <path d="m2-1v2h-2l2-2z"/>
     </g><g class="com.sun.star.drawing.PolyPolygonShape" transform="translate(-745.5 -792.53)">
       <path d="m0-1h2v2h-2v-2z"/>
     </g><g class="com.sun.star.drawing.PolyPolygonShape" transform="translate(-745.5 -792.53)">
       <path d="m0 1v-2l2 2h-2zm2 0-2-2v2h2z"/>
     </g><g class="com.sun.star.drawing.PolyPolygonShape" transform="translate(-745.5 -792.53)">
       <path d="m2 1h-2 1v-2l1 2z"/>
     </g><g class="com.sun.star.drawing.PolyPolygonShape" transform="translate(-745.5 -792.53)">
       <path d="m0 1v-2 2l2-2-2 2z"/>
     </g><g class="com.sun.star.drawing.ClosedBezierShape" transform="translate(-745.5 -792.53)">
       <path d="m2 1h-2v-2h2v2z"/>
     </g><g class="com.sun.star.drawing.PolyPolygonShape" transform="translate(-745.5 -792.53)">
       <path d="m0 0z"/>
     </g><g class="com.sun.star.drawing.PolyPolygonShape" transform="translate(-745.5 -792.53)">
       <path d="m2-1v2h-2l2-2z"/>
     </g><g class="com.sun.star.drawing.PolyPolygonShape" transform="translate(-745.5 -792.53)">
       <path d="m0-1h2v2h-2v-2z"/>
     </g><g class="com.sun.star.drawing.PolyPolygonShape" transform="translate(-745.5 -792.53)">
       <path d="m0 1v-2l2 2h-2zm2 0-2-2v2h2z"/>
     </g><g class="com.sun.star.drawing.PolyPolygonShape" transform="translate(-745.5 -792.53)">
       <path d="m2 1h-2 1v-2l1 2z"/>
     </g><g class="com.sun.star.drawing.PolyPolygonShape" transform="translate(-745.5 -792.53)">
       <path d="m0 1v-2 2l2-2-2 2z"/>
     </g><g class="com.sun.star.drawing.ClosedBezierShape" transform="translate(-745.5 -792.53)">
       <path d="m2 1h-2v-2h2v2z"/>
     </g><g class="com.sun.star.drawing.PolyPolygonShape" transform="translate(-745.5 -792.53)">
       <path d="m0 0z"/>
     </g><g class="com.sun.star.drawing.PolyPolygonShape" transform="translate(-745.5 -792.53)">
       <path d="m2-1v2h-2l2-2z"/>
     </g><g class="com.sun.star.drawing.PolyPolygonShape" transform="translate(-745.5 -792.53)">
       <path d="m0-1h2v2h-2v-2z"/>
     </g><g class="com.sun.star.drawing.PolyPolygonShape" transform="translate(-745.5 -792.53)">
       <path d="m0 1v-2l2 2h-2zm2 0-2-2v2h2z"/>
     </g><g class="com.sun.star.drawing.PolyPolygonShape" transform="translate(-745.5 -792.53)">
       <path d="m2 1h-2 1v-2l1 2z"/>
     </g><g class="com.sun.star.drawing.PolyPolygonShape" transform="translate(-745.5 -792.53)">
       <path d="m0 1v-2 2l2-2-2 2z"/>
     </g><g class="com.sun.star.drawing.ClosedBezierShape" transform="translate(-745.5 -792.53)">
       <path d="m2 1h-2v-2h2v2z"/>
     </g><g class="com.sun.star.drawing.PolyPolygonShape" transform="translate(-745.5 -792.53)">
       <path d="m0 0z"/>
     </g><g class="com.sun.star.drawing.PolyPolygonShape" transform="translate(-745.5 -792.53)">
       <path d="m2-1v2h-2l2-2z"/>
     </g><g class="com.sun.star.drawing.PolyPolygonShape" transform="translate(-745.5 -792.53)">
       <path d="m0-1h2v2h-2v-2z"/>
     </g><g class="com.sun.star.drawing.PolyPolygonShape" transform="translate(-745.5 -792.53)">
       <path d="m0 1v-2l2 2h-2zm2 0-2-2v2h2z"/>
     </g><g class="com.sun.star.drawing.PolyPolygonShape" transform="translate(-745.5 -792.53)">
       <path d="m2 1h-2 1v-2l1 2z"/>
     </g><g class="com.sun.star.drawing.PolyPolygonShape" transform="translate(-745.5 -792.53)">
       <path d="m0 1v-2 2l2-2-2 2z"/>
     </g><g class="com.sun.star.drawing.ClosedBezierShape" transform="translate(-745.5 -792.53)">
       <path d="m2 1h-2v-2h2v2z"/>
     </g><g class="com.sun.star.drawing.PolyPolygonShape" transform="translate(-745.5 -792.53)">
       <path d="m0 0z"/>
     </g><g class="com.sun.star.drawing.ClosedBezierShape" transform="translate(-689.06 -848.97)" fill="#ab2524">
      <g fill="#ab2524">
       <path d="m2399 12790c0 1883 429 3484 1371 5115 941 1631 2113 2803 3744 3744 1631 942 3232 1371 5115 1371 1884 0 3485-429 5116-1371 1631-941 2803-2113 3744-3744 942-1631 1371-3232 1371-5115 0-1884-429-3485-1371-5116-941-1631-2113-2803-3744-3744-1631-942-3232-1371-5116-1371-1883 0-3484 429-5115 1371-1631 941-2803 2113-3744 3744-942 1631-1371 3232-1371 5116z" fill-opacity="0"/>
      </g>
     </g><g class="com.sun.star.drawing.ClosedBezierShape" transform="matrix(.98778 0 0 .98778 -553.29 -667.67)" fill="#c63627">
      <g fill="#c63627">
       <path d="m12629 795.12c-2150.6 0-4133.6 531.28-5996.5 1607-0.2385 0.1378-0.4801 0.2685-0.7187 0.4063-1862.7 1074.9-3314.4 2526.5-4389.2 4389.2-0.1377 0.2386-0.2686 0.4802-0.4063 0.7187-1076.6 1863-1607.9 3846.6-1607.9 5997.6 0 2150.6 531.28 4133.6 1607 5996.5 0.1377 0.238 0.2686 0.48 0.4063 0.719 1074.9 1862.7 2526.5 3314.4 4389.2 4389.2 0.2386 0.137 0.4802 0.268 0.7187 0.406 1862.8 1075.7 3845.8 1607 5996.5 1607 2151.5 0 4134.6-531.28 5997.5-1607 0.238-0.138 0.48-0.269 0.719-0.406 1862.7-1074.9 3314.4-2526.5 4389.2-4389.2 0.137-0.239 0.268-0.481 0.406-0.719 1075.7-1862.8 1607-3845.8 1607-5996.5 0-2151.5-531.28-4134.6-1607-5997.5-0.138-0.2385-0.269-0.4801-0.406-0.7187-1074.9-1862.7-2526.5-3314.4-4389.2-4389.2-0.239-0.1378-0.481-0.2685-0.719-0.4063-1863-1075.6-3847-1606.9-5998-1606.9zm0 3527.8c1616.2 0 2834.9 326.59 4233.8 1134.6a1764.1 1764.1 0 0 0 0.719 0.4063c1398.7 806.97 2290.7 1698.9 3097.6 3097.6a1764.1 1764.1 0 0 0 0.406 0.7187c807.97 1398.9 1134.6 2617.6 1134.6 4233.8 0 1615.1-326.59 2833.9-1134.6 4232.8a1764.1 1764.1 0 0 0 -0.406 0.719c-806.97 1398.7-1698.9 2290.7-3097.6 3097.6a1764.1 1764.1 0 0 0 -0.719 0.406c-1398.9 807.97-2617.6 1134.6-4233.8 1134.6-1615.1 0-2833.9-326.59-4232.8-1134.6a1764.1 1764.1 0 0 0 -0.7187 -0.406c-1398.9-808-2290.9-1700-3097.9-3098a1764.1 1764.1 0 0 0 -0.4063 -0.719c-807.9-1399-1134.5-2618-1134.5-4233 0-1616.2 326.59-2834.9 1134.6-4233.8a1764.1 1764.1 0 0 0 0.4063 -0.7187c806.9-1398.7 1698.9-2290.7 3097.6-3097.7a1764.1 1764.1 0 0 0 0.7187 -0.4063c1398.9-807.9 2617.8-1134.5 4232.8-1134.5z" color="#000000" fill="#c63627" fill-rule="nonzero" style="block-progression:tb;text-indent:0;text-transform:none"/>
      </g>
     </g>
<path d="m13380 7484.3c-19.681 0.254-39.374 1.5804-59.09 2.6444-315.44 17.051-494.77 349.84-494.77 469.19 0 119.36-144.64 382.47-221.37 476.25s-485.95 162.28-588.26 187.85c-102.31 25.576-946.03 826.97-1014.2 895.17-68.204 68.204-273.11 162.57-366.89 171.1-93.781 8.5257-968.9 538.04-1057.5 681.74-81.209 131.79-167.58 539.96-224.9 850.19-42.805 22.052-75.194 49.364-90.84 83.785-89.028 195.86-165.86 203.25-329.85 195.79-195.86-8.903-481.11 44.632-338.67-106.72s249.89-285.51 312.21-499.18c62.319-213.67-195.79-293.69-195.79-293.69-964.47-8.68-2086.5-9.155-2433.3-9.701-194.47 4.211-182.97 304.72-86.43 374.83 46.125 33.499 328.97 186.97 328.97 186.97l0.8806 257.53s-436.83 214.66-597.08 366.01-436.56 533.58-436.56 533.58l-542.4-8.82 222.25 1326.4 451.56-6.174c134.21 860.61 878.86 1519.6 1777.1 1519.6 962.23 0 1747.5-756.3 1795.6-1706.6l298.98 10.583 609.42 877.54h3631.8c311.6 0 302.71-195.84 186.97-284.87-115.73-89.027-436.56-321.03-436.56-321.03l1705.7-1614.8 162.28-22.931c-287.89 355.18-460.38 807.28-460.38 1300 0 84.597 14.993 250.47 14.993 250.47 111.15 85.629 185.34 103.03 296.33 148.17 0 0 10.217 61.473 51.153 175.51 40.935 114.03 116.42 278.7 116.42 278.7 316.56 568.97 908.72 945.44 1588.4 945.44 993.27 0 1798.3-805.01 1798.3-1798.3 0-63.345-3.314-125.31-9.701-186.97-19.306-186.35-67.57-364.12-139.35-529.17l225.78-152.58c-328.23-707.02-1044.2-1197.7-1875-1197.7-263.17 0-515.48 48.751-747.01 138.46-146.86-285.98-263.51-508.16-294.57-547.69-101.54-129.22-122.12-368.23-331.61-372.18-6.758-0.141-14.005 0.511-21.166 0.881-313.65 16.369-562.95 27.833-765.53 37.041-177.53-138.34-484.1-360.72-631.47-360.72-213.14 0-316.03 34.69-529.17 119.94-213.14 85.254-493.89 76.729-493.89 76.729s94.074-528.87 111.12-724.96c17.051-196.09-26.164-792.57 7.938-835.2 390.83 408.41 340.2-106.31 605.9-145.52 276.04-339.12 356.3-720.85 263.7-877.53-167.85-247.77-455.31-338.85-750.54-335.14zm1459.6 3429.9c141.2 21.861 312.66 52.794 418.04 82.903 50.827 14.522 170.73 178.03 320.15 413.63h-1748.9l11.465-377.47s444.21 85.843 614.72 68.792c157.86-15.786 344.11-142.28 384.53-187.85zm-7444.9 1239c218.76 0 422.9 59.881 598.84 163.16l-698.5 762c-35.826 13.703-69.129 34.591-96.132 60.854l-972.78-7.938c98.284-556.01 584.36-978.08 1168.6-978.08zm9561.2 37.042c468 0 871.57 271.25 1064.5 664.99 77.149 157.45 120.83 334.09 120.83 521.23 0 655.14-530.2 1186.2-1185.3 1186.2-578.95 0-1061.6-414.54-1165.9-963.08-13.731-72.182-21.166-146.95-21.166-223.13 0-365.9 166.45-692.57 426.86-910.17 230.64 412.34 395.02 720.16 461.26 844.02 15.192 28.407 57.326 106.72 57.326 106.72 81.022 122.79 143.96 178.18 241.65 179.04 121.03 0 210.78-81.817 210.78-202.85-7.689-29.91-19.658-92.643-80.257-195.79 0 0-12.353-23.8-13.229-25.576-18.728-37.961-221.84-450.6-462.14-930.45 109.14-33.116 224.88-51.152 344.84-51.152zm-3542.8 63.5 766.41 5.291-1150.9 1008.9 384.53-1014.2zm-2944.8 144.64 1087.4 82.021-496.54 680.86-590.9-762.88zm-2192.5 147.28c189.6 210.26 304.27 488.34 304.27 793.75 0 655.14-530.2 1186.2-1185.3 1186.2-610.64 0-1113.7-461.62-1179.2-1054.8l939.27 13.229c48.993 81.074 138.25 134.94 239.89 134.94 154.51 0 279.58-125.07 279.58-279.58 0-22.733-2.8194-44.986-7.9375-66.146l609.42-727.6z" fill="#0a0a0d" stroke="#000" stroke-linejoin="miter" stroke-width="28.222"/></svg>